<svg width="67" height="64" viewBox="0 0 67 64" fill="none" xmlns="http://www.w3.org/2000/svg">
<path d="M31.5 61.7891C48.7232 61.7891 62.6855 48.4521 62.6855 32C62.6855 15.548 48.7232 2.21094 31.5 2.21094C14.2767 2.21094 0.314545 15.548 0.314545 32C0.314545 48.4521 14.2767 61.7891 31.5 61.7891Z" fill="#3F65A6"/>
<path d="M26.7613 22.2021C26.7613 23.0632 26.7613 26.9032 26.7613 26.9032H23.1555V32.6516H26.7613V48.4072H34.1678V32.64H39.138C39.138 32.64 39.6009 29.8821 39.8324 26.8683C39.1867 26.8683 34.2044 26.8683 34.2044 26.8683C34.2044 26.8683 34.2044 23.5287 34.2044 22.9352C34.2044 22.3534 35.0084 21.5621 35.8124 21.5621C36.6042 21.5621 38.2853 21.5621 39.8445 21.5621C39.8445 20.7825 39.8445 18.0712 39.8445 15.5811C37.7615 15.5811 35.3982 15.5811 34.3627 15.5811C26.5785 15.5927 26.7613 21.3411 26.7613 22.2021Z" fill="white"/>
</svg>
