<svg width="46" height="37" viewBox="0 0 46 37" fill="none" xmlns="http://www.w3.org/2000/svg">
<path d="M12.5795 1.26259C6.41287 1.26259 1.44023 5.50128 1.43751 10.6724C1.43208 13.9945 2.91459 17.0209 5.07057 19.6764C5.24932 21.3591 6.11309 22.819 6.93764 24.04C7.86243 25.4094 8.66713 26.4163 8.66713 27.0877H8.62502C8.22807 27.0865 7.90506 27.3424 7.90346 27.6593V29.3843C7.50872 29.3856 7.18909 29.6408 7.18752 29.956V35.1199C7.18599 35.4368 7.50654 35.6948 7.90346 35.696H38.0952C38.4921 35.6948 38.8126 35.4368 38.8111 35.1199V29.956C38.8095 29.6408 38.4899 29.3856 38.0952 29.3843V27.6593C38.0936 27.3424 37.7705 27.0865 37.3736 27.0877H36.7363C36.9191 26.4294 37.415 25.8769 38.0095 24.995C38.6002 24.1188 39.1718 23.0251 39.4119 21.3902C42.3624 18.3532 44.5687 14.7304 44.5625 10.6724C44.5598 5.50128 39.5872 1.26259 33.4205 1.26259C27.3943 1.26259 23.7867 3.42596 23 3.94822C22.2133 3.42596 18.6058 1.26259 12.5795 1.26259ZM22.9972 7.57538C23.3876 7.57547 23.7188 7.81918 23.7188 8.14703V13.312V13.8882C23.7188 14.6536 25.1563 14.6536 25.1563 13.8882V9.86983C25.1563 9.54197 25.4812 9.29818 25.8722 9.29818C26.2632 9.29818 26.5938 9.54197 26.5938 9.86983V15.0337C26.5938 15.7991 28.0313 15.7991 28.0313 15.0337V12.1688C28.0313 11.8409 28.3577 11.5926 28.7486 11.5926C29.1371 11.5926 29.4634 11.8388 29.4674 12.1643C29.4688 13.5194 29.4688 14.8279 29.4688 16.2331C29.4688 18.7048 28.7759 20.0293 28.1169 21.0069C27.5293 21.8785 26.8379 22.6181 26.6485 23.6432H19.4456C19.4456 22.5678 18.4381 21.376 17.5462 20.0553C16.6544 18.7346 15.8112 17.2496 15.8111 15.611C15.812 14.7355 15.8167 13.8671 15.8167 12.9915C15.8385 12.5228 16.2949 12.1665 16.8892 12.1665C17.499 12.1665 17.9716 12.5405 17.9716 13.0273V15.611C17.972 15.8282 18.127 16.0262 18.3703 16.1232C18.3703 16.1232 20.848 17.138 20.848 19.051C20.867 19.8267 22.2742 19.8179 22.2799 19.051C22.2799 16.802 19.9731 15.5643 19.4091 15.2803C19.4103 13.2851 19.4105 11.2906 19.4105 9.29482C19.4105 8.96696 19.7354 8.72317 20.1264 8.72317C20.5102 8.72317 20.8319 8.95929 20.8438 9.278V13.3143C20.8438 14.0797 22.2813 14.0797 22.2813 13.3143C22.2893 11.5602 22.2818 9.67902 22.2813 8.14703C22.2813 7.81918 22.6069 7.5753 22.9972 7.57538ZM13.6563 11.5926C14.0479 11.5927 14.3778 11.8364 14.3778 12.1643V12.9937C14.3776 13.0052 14.3722 13.0159 14.3722 13.0273V15.611C14.3724 17.559 15.351 19.2283 16.2758 20.5978C17.2006 21.9672 18.0067 22.9724 18.0067 23.6432H17.9688C17.5691 23.642 17.2449 23.9013 17.2472 24.2205V25.9399C16.8524 25.9411 16.5328 26.1963 16.5313 26.5115V27.0877L10.1032 27.0865C10.1032 26.0106 9.09574 24.8182 8.20387 23.4975C7.31203 22.1768 6.4689 20.693 6.46876 19.0543V16.4696C6.46874 15.9828 6.93576 15.6099 7.54549 15.6099C8.15521 15.6099 8.62782 15.9827 8.62782 16.4696V19.0543C8.62831 19.2715 8.78294 19.4696 9.0265 19.5666C9.0265 19.5666 11.5042 20.5813 11.5042 22.4943C11.5232 23.27 12.9305 23.2612 12.9361 22.4943C12.9361 20.2453 10.6308 19.0076 10.0667 18.7237V13.312C10.0667 12.9842 10.3917 12.7404 10.7827 12.7404C11.1664 12.7404 11.4881 12.9765 11.5 13.2952V17.3315C11.5 18.0969 12.9389 18.0969 12.9389 17.3315C12.9407 15.9912 12.9417 14.6532 12.9417 13.312C12.9417 13.3045 12.939 13.2973 12.9389 13.2896V12.1643C12.9389 11.8364 13.2646 11.5926 13.6563 11.5926ZM31.6222 11.5926C32.0132 11.5926 32.3438 11.8364 32.3438 12.1643V17.9032C32.3438 18.6685 33.7813 18.6685 33.7813 17.9032V13.8871C33.7813 13.5592 34.1062 13.3154 34.4972 13.3154C34.8882 13.3154 35.2188 13.5592 35.2188 13.8871V18.4793C35.2188 18.9577 35.7816 19.1369 36.2028 19.0173C36.4555 18.9456 36.6577 18.7663 36.6577 18.4793V15.611C36.6577 15.2831 36.9827 15.0348 37.3736 15.0348C37.7645 15.0348 38.0938 15.2831 38.0938 15.611V19.6775C38.0938 22.1493 37.4009 23.4749 36.7419 24.4525C36.1545 25.3238 35.4632 26.0631 35.2735 27.0877H29.4674V26.5115C29.4658 26.1963 29.1462 25.9411 28.7514 25.9399V24.2205C28.7536 23.9235 28.4694 23.6872 28.1085 23.6555C28.2886 22.9918 28.7864 22.4368 29.3845 21.5494C30.1611 20.3974 30.9063 18.8765 30.9063 16.2331V12.1665C30.9063 11.8364 31.2312 11.5926 31.6222 11.5926ZM18.6861 24.7921H18.7184C18.7239 24.7921 18.7298 24.7921 18.7352 24.7921H27.3139V25.9399H18.6861V24.7921ZM17.9702 27.0877H28.0299V34.5482H17.9702V27.0877ZM9.34096 28.2366H16.5313V29.3843H9.34096V28.2366ZM29.4674 28.2366H36.6577V29.3843H29.4674V28.2366ZM8.62502 30.5321H16.5327V34.5482H8.62502V30.5321ZM29.4674 30.5321H37.3736V34.5482H29.4674V30.5321Z" fill="#230735"/>
</svg>
