<svg width="193" height="174" viewBox="0 0 193 174" fill="none" xmlns="http://www.w3.org/2000/svg">
<mask id="mask0_45_5" style="mask-type:luminance" maskUnits="userSpaceOnUse" x="5" y="76" width="52" height="36">
<path d="M5.66132 76.5596H56.0987V111.36H5.66132V76.5596Z" fill="white"/>
</mask>
<g mask="url(#mask0_45_5)">
<mask id="mask1_45_5" style="mask-type:luminance" maskUnits="userSpaceOnUse" x="0" y="70" width="62" height="48">
<path d="M0.00201416 99.8141L13.7291 70.167L61.5147 88.1506L47.7876 117.798L0.00201416 99.8141Z" fill="white"/>
</mask>
<g mask="url(#mask1_45_5)">
<mask id="mask2_45_5" style="mask-type:luminance" maskUnits="userSpaceOnUse" x="5" y="76" width="51" height="36">
<path d="M6.86559 84.9892C3.07394 93.1763 10.6934 103.837 23.8838 108.802C37.0741 113.764 50.8394 111.153 54.6291 102.966C58.4207 94.7785 50.8012 84.1174 37.6109 79.1548C24.4205 74.1904 10.6552 76.8022 6.86559 84.9892Z" fill="white"/>
</mask>
<g mask="url(#mask2_45_5)">
<path d="M0.00201416 99.8141L13.7291 70.167L61.5147 88.1506L47.7876 117.798L0.00201416 99.8141Z" fill="#343A40"/>
</g>
</g>
</g>
<mask id="mask3_45_5" style="mask-type:luminance" maskUnits="userSpaceOnUse" x="37" y="28" width="44" height="43">
<path d="M37.056 28.3037H80.288V70.0637H37.056V28.3037Z" fill="white"/>
</mask>
<g mask="url(#mask3_45_5)">
<mask id="mask4_45_5" style="mask-type:luminance" maskUnits="userSpaceOnUse" x="28" y="20" width="61" height="58">
<path d="M28.6926 41.1203L56.4565 20.9834L88.9147 57.3566L61.1508 77.4953L28.6926 41.1203Z" fill="white"/>
</mask>
<g mask="url(#mask4_45_5)">
<mask id="mask5_45_5" style="mask-type:luminance" maskUnits="userSpaceOnUse" x="37" y="28" width="44" height="43">
<path d="M42.5745 31.0523C34.9068 36.6131 35.9542 49.2607 44.9147 59.3001C53.8731 69.3396 67.3509 72.9718 75.0187 67.4111C82.6864 61.8503 81.639 49.2027 72.6785 39.1632C63.7201 29.122 50.2423 25.4916 42.5745 31.0523Z" fill="white"/>
</mask>
<g mask="url(#mask5_45_5)">
<path d="M28.6926 41.1203L56.4565 20.9834L88.9147 57.3566L61.1508 77.4953L28.6926 41.1203Z" fill="#9C0376"/>
</g>
</g>
</g>
<mask id="mask6_45_5" style="mask-type:luminance" maskUnits="userSpaceOnUse" x="92" y="7" width="37" height="48">
<path d="M92.7566 7.66699H128.391V54.3497H92.7566V7.66699Z" fill="white"/>
</mask>
<g mask="url(#mask6_45_5)">
<mask id="mask7_45_5" style="mask-type:luminance" maskUnits="userSpaceOnUse" x="92" y="7" width="37" height="48">
<path d="M110.575 7.66699C100.734 7.66699 92.7566 18.1124 92.7566 30.9975C92.7566 43.8844 100.734 54.3298 110.575 54.3298C120.414 54.3298 128.391 43.8844 128.391 30.9975C128.391 18.1124 120.414 7.66699 110.575 7.66699Z" fill="white"/>
</mask>
<g mask="url(#mask7_45_5)">
<path d="M92.7566 7.66699H128.391V54.3497H92.7566V7.66699Z" fill="#230735"/>
</g>
</g>
<mask id="mask8_45_5" style="mask-type:luminance" maskUnits="userSpaceOnUse" x="145" y="31" width="40" height="47">
<path d="M145.651 31.5518H184.251V77.0238H145.651V31.5518Z" fill="white"/>
</mask>
<g mask="url(#mask8_45_5)">
<mask id="mask9_45_5" style="mask-type:luminance" maskUnits="userSpaceOnUse" x="138" y="26" width="53" height="56">
<path d="M157.468 26.7773L190.71 38.352L172.055 81.9009L138.813 70.3263L157.468 26.7773Z" fill="white"/>
</mask>
<g mask="url(#mask9_45_5)">
<mask id="mask10_45_5" style="mask-type:luminance" maskUnits="userSpaceOnUse" x="145" y="31" width="39" height="46">
<path d="M174.09 32.565C164.91 29.3677 153.294 36.5216 148.146 48.5421C142.995 60.5626 146.262 72.8985 155.441 76.094C164.621 79.2912 176.237 72.1373 181.386 60.1168C186.537 48.0963 183.268 35.7604 174.09 32.565Z" fill="white"/>
</mask>
<g mask="url(#mask10_45_5)">
<path d="M157.468 26.7773L190.71 38.352L172.055 81.9009L138.813 70.3263L157.468 26.7773Z" fill="#9B666D"/>
</g>
</g>
</g>
<mask id="mask11_45_5" style="mask-type:luminance" maskUnits="userSpaceOnUse" x="71" y="71" width="92" height="80">
<path d="M71.5387 71.9199H162.12V150.336H71.5387V71.9199Z" fill="white"/>
</mask>
<g mask="url(#mask11_45_5)">
<mask id="mask12_45_5" style="mask-type:luminance" maskUnits="userSpaceOnUse" x="53" y="57" width="117" height="100">
<path d="M169.601 127.852L81.7938 156.585L53.4791 86.2532L141.286 57.5215L169.601 127.852Z" fill="white"/>
</mask>
<g mask="url(#mask12_45_5)">
<mask id="mask13_45_5" style="mask-type:luminance" maskUnits="userSpaceOnUse" x="53" y="57" width="117" height="100">
<path d="M169.601 127.852L81.7938 156.585L53.4791 86.2532L141.286 57.5215L169.601 127.852Z" fill="white"/>
</mask>
<g mask="url(#mask13_45_5)">
<path d="M73.5913 134.909C78.3942 146.839 93.014 153 106.245 148.67C114.276 146.042 119.923 140.149 122.073 133.262C128.62 137.304 137.147 138.558 145.176 135.932C158.409 131.602 165.242 118.423 160.439 106.491C159.758 104.802 158.861 103.241 157.818 101.797C146.99 84.2519 116.096 72.1117 97.451 72.1045C83.1549 82.8907 68.0868 110.069 72.2665 129.789C72.4896 131.502 72.9098 133.217 73.5913 134.909Z" fill="#230735"/>
</g>
</g>
</g>
</svg>
