<svg width="46" height="37" viewBox="0 0 46 37" fill="none" xmlns="http://www.w3.org/2000/svg">
<g clip-path="url(#clip0_23_22)">
<path d="M16.8162 3.31551C9.8137 3.31551 4.11694 7.89734 4.11694 13.5295C4.11694 16.2582 5.43769 18.8234 7.83576 20.7526C10.2342 22.6818 13.4234 23.7444 16.8161 23.7444C20.2074 23.7444 23.3963 22.6821 25.7951 20.7526C28.1943 18.8228 29.5154 16.2579 29.5154 13.5298C29.5155 7.89768 23.8187 3.31551 16.8162 3.31551ZM24.6652 19.8432C22.5683 21.5296 19.7809 22.4588 16.8162 22.4588C13.8504 22.4588 11.0623 21.5296 8.96616 19.8438C6.86999 18.1574 5.71555 15.9154 5.71555 13.5299C5.71555 8.60685 10.6958 4.60159 16.8163 4.60159C22.9372 4.60159 27.9171 8.60685 27.9171 13.5301C27.917 15.9145 26.7624 18.1568 24.6652 19.8432Z" fill="white"/>
<path d="M44.5155 30.0587L34.5032 22.0053L32.8528 23.3328L30.4764 21.4219C35.2644 16.0749 34.5569 8.66662 28.7098 3.96307C25.5327 1.40747 21.3084 0 16.8155 0C16.8152 0 16.8158 0 16.8152 0C12.3231 0 8.09836 1.40747 4.92238 3.96273C-1.63607 9.23834 -1.63607 17.8218 4.92238 23.0964C10.769 27.8003 19.9792 28.3695 26.6273 24.5179L29.0041 26.4288L27.3531 27.7574L37.3652 35.8103C38.3509 36.6031 39.6453 37 40.9402 37C42.2346 36.9994 43.5301 36.6031 44.5155 35.8103C45.4703 35.0425 45.9964 34.0213 45.9968 32.9347C45.9968 31.8484 45.4707 30.8267 44.5155 30.0587ZM43.3859 34.9011C42.037 35.9855 39.8433 35.9855 38.4951 34.9011L29.6131 27.7575L32.0578 25.79L30.9275 24.8808L30.1336 25.5197L26.7642 22.8104L26.2073 23.163C20.161 26.9857 11.4964 26.5666 6.05257 22.1875C0.117496 17.4139 0.117496 9.646 6.05257 4.87189C8.92749 2.5592 12.75 1.28575 16.8158 1.28575C20.8817 1.28575 24.7046 2.55954 27.5794 4.87214C33.0236 9.2514 33.5447 16.2211 28.7918 21.0844L28.3538 21.5324L32.8534 25.1511L34.5038 23.8236L43.3858 30.9673C44.0387 31.493 44.3989 32.191 44.3989 32.9345C44.3986 33.6773 44.0388 34.3759 43.3859 34.9011Z" fill="white"/>
<path d="M40.756 33.0831L38.5011 31.2687L37.3704 32.1778L39.6261 33.9928C40.0999 34.3734 40.6527 34.4302 40.94 34.4302C41.2278 34.4302 41.7808 34.3734 42.2555 33.9916L41.1252 33.0825C41.0235 33.1644 40.8566 33.1639 40.756 33.0831Z" fill="white"/>
<path d="M10.4765 8.43081C8.78072 9.79517 7.8468 11.606 7.8468 13.5304H9.44531C9.44531 11.9495 10.2129 10.4614 11.6072 9.34022C13.0011 8.21903 14.8505 7.6016 16.8155 7.6016H16.8162V6.31585C16.8162 6.31585 16.8159 6.31585 16.8155 6.31585C14.423 6.31593 12.172 7.06704 10.4765 8.43081Z" fill="white"/>
</g>
<defs>
<clipPath id="clip0_23_22">
<rect width="46" height="37" fill="white"/>
</clipPath>
</defs>
</svg>
