<svg width="27" height="26" viewBox="0 0 27 26" fill="none" xmlns="http://www.w3.org/2000/svg">
<g clip-path="url(#clip0_19_526)">
<path d="M14.3142 0.512114L17.9929 8.03489L26.2195 9.24096C26.3865 9.26183 26.5442 9.33114 26.6743 9.44079C26.8043 9.55043 26.9014 9.69589 26.954 9.86015C27.0067 10.0244 27.0128 10.2007 26.9716 10.3684C26.9304 10.5361 26.8437 10.6883 26.7215 10.8071L20.7731 16.6596L22.1779 24.9286C22.2037 25.0995 22.1828 25.2745 22.1174 25.4339C22.0521 25.5933 21.9449 25.7309 21.8079 25.8312C21.6709 25.9316 21.5095 25.9908 21.3417 26.0023C21.1738 26.0137 21.0062 25.977 20.8575 25.8961L13.5 21.9915L6.14248 25.8961C5.99379 25.977 5.82615 26.0137 5.65831 26.0023C5.49046 25.9908 5.32901 25.9316 5.19201 25.8312C5.05501 25.7309 4.94785 25.5933 4.88251 25.4339C4.81717 25.2745 4.79622 25.0995 4.82201 24.9286L6.22685 16.6596L0.274196 10.8028C0.153216 10.6834 0.0676515 10.5312 0.0274434 10.3639C-0.0127647 10.1965 -0.00596572 10.0208 0.0470504 9.85725C0.100066 9.69369 0.197123 9.54895 0.326945 9.43986C0.456767 9.33077 0.614024 9.2618 0.780446 9.24096L9.00701 8.03489L12.6858 0.512114C12.7627 0.358197 12.8794 0.229063 13.023 0.138901C13.1667 0.0487391 13.3317 0.0010376 13.5 0.0010376C13.6683 0.0010376 13.8333 0.0487391 13.9769 0.138901C14.1206 0.229063 14.2373 0.358197 14.3142 0.512114Z" fill="#9C0376"/>
<path opacity="0.4" d="M21.697 11.2798C14.947 11.9306 9.46264 16.2299 8.07467 21.8091H8.05358L9.09139 15.692L4.6828 11.3536L10.7747 10.4555L13.5 4.92407L16.2253 10.4902L21.697 11.2798Z" fill="white"/>
</g>
<defs>
<clipPath id="clip0_19_526">
<rect width="27" height="26" fill="white"/>
</clipPath>
</defs>
</svg>
